<svg width="189" height="33" viewBox="0 0 189 33" fill="none" xmlns="http://www.w3.org/2000/svg">
<path d="M0.827943 5.22008C0.827943 4.14007 0.791943 3.52808 0.611943 3.31207C0.431943 3.13207 -5.66095e-05 2.98807 -5.66095e-05 2.48407C-5.66095e-05 2.08808 0.287943 1.83607 0.827943 1.51207L3.20394 0.216076C3.45594 0.0720756 3.70794 7.43866e-05 3.88794 7.43866e-05C4.13994 7.43866e-05 4.31994 0.252075 4.31994 0.720076V23.6521C4.31994 25.0921 5.07594 24.9841 5.07594 25.4881C5.07594 25.9561 4.75194 26.0281 3.99594 26.0281H1.18794C0.431943 26.0281 0.0719434 25.9561 0.0719434 25.4881C0.0719434 24.9841 0.827943 25.0921 0.827943 23.6521V5.22008ZM11.995 26.3881C9.33097 26.3881 7.13497 23.2201 7.13497 18.0361C7.13497 12.1681 9.51097 8.67608 11.563 8.67608C13.975 8.67608 16.315 12.3481 16.315 17.8921C16.315 23.2201 14.299 26.3881 11.995 26.3881ZM13.183 22.7521C13.723 22.7521 14.119 22.3201 14.119 21.5281C14.119 20.5921 13.723 18.5041 12.607 15.7321C11.635 13.3561 11.023 12.0961 10.159 12.0961C9.58297 12.0961 9.33097 12.5641 9.33097 13.4281C9.33097 14.6161 9.65497 16.6681 10.627 19.2241C11.527 21.5641 12.391 22.7521 13.183 22.7521ZM19.0389 5.22008C19.0389 4.14007 19.0029 3.52808 18.8229 3.31207C18.6429 3.13207 18.2109 2.98807 18.2109 2.48407C18.2109 2.08808 18.4989 1.83607 19.0389 1.51207L21.4149 0.216076C21.6669 0.0720756 21.9189 7.43866e-05 22.0989 7.43866e-05C22.3509 7.43866e-05 22.5309 0.252075 22.5309 0.720076V23.6521C22.5309 25.0921 23.2869 24.9841 23.2869 25.4881C23.2869 25.9561 22.9629 26.0281 22.2069 26.0281H19.3989C18.6429 26.0281 18.2829 25.9561 18.2829 25.4881C18.2829 24.9841 19.0389 25.0921 19.0389 23.6521V5.22008ZM31.8979 23.9041C31.1059 25.6321 30.2779 26.3881 28.8739 26.3881C27.0379 26.3881 25.4899 24.5881 25.4899 21.9241C25.4899 18.6841 27.3259 16.2721 30.9979 14.6521L30.9259 13.5361C30.8179 11.5921 30.2059 10.5841 29.3419 10.5841C28.9099 10.5841 28.5859 10.7281 28.2619 11.0161C28.9099 11.4121 29.2339 11.9521 29.2339 12.6721C29.2339 13.6081 28.5499 14.3281 27.5779 14.3281C26.5699 14.3281 25.8139 13.5001 25.8139 12.1681C25.8139 10.1161 27.3979 8.71207 29.8819 8.71207C33.0499 8.71207 34.2019 10.3321 34.3819 13.8961L34.8139 22.2841C34.8499 23.1841 35.1019 23.6161 35.6059 23.6161C35.7499 23.6161 35.8939 23.6161 36.0739 23.5801C36.1099 23.7601 36.1099 23.9401 36.1099 24.1201C36.1099 25.6681 35.4619 26.4241 34.0939 26.4241C32.8339 26.4241 32.1139 25.5961 31.8979 23.9041ZM31.2859 21.2401L31.1059 16.5241C31.1059 16.3441 30.9979 16.2001 30.8899 16.2001C30.4219 16.2001 28.7299 17.7841 28.7299 20.6281C28.7299 22.6801 29.1619 23.6881 30.0619 23.6881C30.9259 23.6881 31.2859 23.0041 31.2859 21.6361V21.2401ZM48.9878 27.2881C48.3398 30.7441 47.4398 32.1841 45.2438 32.1841C43.8038 32.1841 43.4438 31.7161 43.2638 30.6001L42.9398 28.6921C42.9038 28.5481 42.9038 28.4041 42.9038 28.2601C42.9038 27.7201 43.1198 27.3961 43.5158 27.3961C44.2718 27.3961 44.4158 28.8721 45.4598 28.8721C46.4318 28.8721 47.0078 27.7561 47.0078 25.5961V25.3801L43.9118 12.4561C43.4078 10.2961 42.6518 9.97208 42.6518 9.64808C42.6518 9.14408 43.0118 9.07208 43.6958 9.07208H46.5758C47.3678 9.07208 47.6558 9.10808 47.6558 9.61208C47.6558 10.1161 46.8998 10.2961 46.8998 11.1241C46.8998 11.2321 46.8998 11.3401 46.9358 11.4481L48.3398 18.8641L49.5638 12.0961C49.5998 11.9521 49.6358 11.6281 49.6358 11.2321C49.6358 10.1161 48.9518 10.0441 48.9518 9.64808C48.9518 9.14408 49.3478 9.07208 50.0318 9.07208H51.7598C52.5518 9.07208 52.8038 9.10808 52.8038 9.61208C52.8038 10.1521 52.1558 10.0441 51.9038 11.4481L48.9878 27.2881ZM58.6825 26.3881C56.0185 26.3881 53.8225 23.2201 53.8225 18.0361C53.8225 12.1681 56.1985 8.67608 58.2505 8.67608C60.6625 8.67608 63.0025 12.3481 63.0025 17.8921C63.0025 23.2201 60.9865 26.3881 58.6825 26.3881ZM59.8705 22.7521C60.4105 22.7521 60.8065 22.3201 60.8065 21.5281C60.8065 20.5921 60.4105 18.5041 59.2945 15.7321C58.3225 13.3561 57.7105 12.0961 56.8465 12.0961C56.2705 12.0961 56.0185 12.5641 56.0185 13.4281C56.0185 14.6161 56.3425 16.6681 57.3145 19.2241C58.2145 21.5641 59.0785 22.7521 59.8705 22.7521ZM67.8504 9.03607C68.1024 8.89208 68.3544 8.82008 68.5344 8.82008C68.7864 8.82008 68.9664 9.10808 68.9664 9.57608V21.2761C68.9664 22.7881 69.1464 23.4361 70.0104 23.4361C71.1264 23.4361 71.5944 22.2121 71.5944 19.8001V14.0761C71.5944 12.9961 71.5584 12.3481 71.3784 12.1321C71.1984 11.9521 70.7664 11.8081 70.7664 11.3041C70.7664 10.9081 71.0544 10.6921 71.5944 10.3681L73.8264 9.03607C74.0784 8.89208 74.3304 8.82008 74.5104 8.82008C74.7624 8.82008 74.9424 9.10808 74.9424 9.57608V22.2841C74.9424 23.1121 75.0144 23.6161 75.3744 23.9041C75.5904 24.0841 75.9864 24.1201 75.9864 24.6241C75.9864 24.9841 75.7344 25.1641 75.2664 25.3081L73.2504 25.9201C72.7824 26.0641 72.4584 26.1721 72.2064 26.1721C71.7744 26.1721 71.5944 25.7761 71.5944 24.8761V23.7601C70.7664 25.5241 69.7224 26.3881 68.4624 26.3881C66.0504 26.3881 65.6184 24.6241 65.6184 20.9161V14.0761C65.6184 12.9961 65.5824 12.3481 65.4024 12.1321C65.2224 11.9521 64.7904 11.8081 64.7904 11.3041C64.7904 10.9081 65.0784 10.6921 65.6184 10.3681L67.8504 9.03607ZM78.7007 14.0761C78.7007 12.9961 78.6647 12.3481 78.4847 12.1321C78.3047 11.9521 77.8367 11.8081 77.8367 11.3041C77.8367 10.8721 78.1967 10.6921 78.7007 10.3681L80.7887 9.03607C81.0047 8.89208 81.2927 8.82008 81.4727 8.82008C81.7247 8.82008 81.9047 9.10808 81.9047 9.57608V10.8721C82.7327 9.39608 83.3087 8.71207 84.2807 8.71207C86.6567 8.71207 87.7367 12.5281 88.2047 20.3041L88.3487 22.6081C88.4207 23.5441 88.4207 24.1561 88.6007 24.5161C88.7447 24.8401 89.2127 25.0921 89.2127 25.4881C89.2127 25.9921 88.8527 26.0281 88.1687 26.0281H85.2887C84.4967 26.0281 84.2087 25.9921 84.2087 25.4881C84.2087 24.9121 84.9647 24.9841 84.9647 23.7241V23.6521L84.8927 21.7081C84.6407 15.1201 83.7047 11.6281 82.7687 11.6281C82.1927 11.6281 82.1927 12.4921 82.1927 14.1841V23.6521C82.1927 25.0561 82.9127 24.9121 82.9127 25.4881C82.9127 25.9921 82.6247 26.0281 81.8327 26.0281H79.0247C78.2687 26.0281 77.9087 25.9561 77.9087 25.4881C77.9087 24.9841 78.7007 25.0921 78.7007 23.6521V14.0761ZM93.4005 19.6561C91.8525 18.5401 91.0965 16.8481 91.0965 14.6521C91.0965 11.0521 93.1125 8.71207 95.9925 8.71207H96.3165C96.4245 6.04808 97.2885 4.78807 99.0165 4.78807C100.169 4.78807 100.889 5.43608 100.889 6.44408C100.889 7.34407 100.313 7.92008 99.5205 7.92008C99.0885 7.92008 98.6925 7.81207 98.3325 7.81207C97.7205 7.81207 97.3965 8.17208 97.3245 8.96407C99.3405 9.43208 100.745 11.5561 100.745 14.4721C100.745 17.6761 99.5205 19.5481 96.8925 20.1961C95.6325 20.5201 93.9045 20.2321 93.9045 21.3841C93.9045 22.0681 94.8765 22.0681 96.3525 22.5001C99.9525 23.5801 101.717 25.0201 101.717 27.6121C101.717 30.2761 99.5205 32.1841 96.2805 32.1841C93.1485 32.1841 90.9885 30.3841 90.9885 28.2601C90.9885 27.0001 91.7085 25.9561 93.1485 25.0561C91.7805 24.4081 91.0965 23.5081 91.0965 22.3921C91.0965 21.1681 91.8525 20.3401 93.4005 19.6561ZM94.5165 25.5601C94.0845 26.3521 93.8325 27.1441 93.8325 27.9001C93.8325 29.3761 94.8765 30.3121 96.3885 30.3121C97.6845 30.3121 98.5125 29.5921 98.5125 28.4761C98.5125 26.9281 97.2525 26.2441 94.5165 25.5601ZM96.0285 18.6481C97.0005 18.6481 97.2885 17.3881 97.2885 14.7961C97.2885 11.6281 96.8205 10.1161 95.7765 10.1161C94.8765 10.1161 94.5525 11.3761 94.5525 13.9321C94.5525 17.0641 95.0205 18.6481 96.0285 18.6481ZM114.015 23.6521C114.015 25.0921 114.771 24.9841 114.771 25.4881C114.771 25.9561 114.447 26.0281 113.691 26.0281H110.883C110.127 26.0281 109.767 25.9561 109.767 25.4881C109.767 24.9841 110.523 25.0921 110.523 23.6521V10.7641H109.299C108.903 10.7641 108.723 10.5481 108.723 10.1881V9.68408C108.723 9.32408 108.903 9.10808 109.299 9.10808H110.523C109.983 7.74008 109.695 6.44408 109.695 5.14807C109.695 1.94408 111.351 0.0360739 113.691 0.0360739C115.419 0.0360739 116.607 1.15207 116.607 2.88008C116.607 4.10408 115.959 4.86008 114.951 4.86008C114.195 4.86008 113.619 4.42808 113.475 3.81607C113.259 2.91608 113.223 2.30407 112.755 2.30407C112.215 2.30407 112.035 2.73608 112.035 3.67207C112.035 5.40008 112.827 7.02008 113.835 9.10808H115.887C116.247 9.10808 116.499 9.32408 116.499 9.68408V10.1881C116.499 10.5481 116.283 10.7641 115.887 10.7641H114.015V23.6521ZM123.761 23.9041C122.969 25.6321 122.141 26.3881 120.737 26.3881C118.901 26.3881 117.353 24.5881 117.353 21.9241C117.353 18.6841 119.189 16.2721 122.861 14.6521L122.789 13.5361C122.681 11.5921 122.069 10.5841 121.205 10.5841C120.773 10.5841 120.449 10.7281 120.125 11.0161C120.773 11.4121 121.097 11.9521 121.097 12.6721C121.097 13.6081 120.413 14.3281 119.441 14.3281C118.433 14.3281 117.677 13.5001 117.677 12.1681C117.677 10.1161 119.261 8.71207 121.745 8.71207C124.913 8.71207 126.065 10.3321 126.245 13.8961L126.677 22.2841C126.713 23.1841 126.965 23.6161 127.469 23.6161C127.613 23.6161 127.757 23.6161 127.937 23.5801C127.973 23.7601 127.973 23.9401 127.973 24.1201C127.973 25.6681 127.325 26.4241 125.957 26.4241C124.697 26.4241 123.977 25.5961 123.761 23.9041ZM123.149 21.2401L122.969 16.5241C122.969 16.3441 122.861 16.2001 122.753 16.2001C122.285 16.2001 120.593 17.7841 120.593 20.6281C120.593 22.6801 121.025 23.6881 121.925 23.6881C122.789 23.6881 123.149 23.0041 123.149 21.6361V21.2401ZM130.275 14.0761C130.275 12.9961 130.239 12.3481 130.059 12.1321C129.879 11.9521 129.411 11.8081 129.411 11.3041C129.411 10.8721 129.771 10.6921 130.275 10.3681L132.363 9.03607C132.579 8.89208 132.867 8.82008 133.047 8.82008C133.299 8.82008 133.479 9.10808 133.479 9.57608V10.8721C134.307 9.39608 134.883 8.71207 135.855 8.71207C138.231 8.71207 139.311 12.5281 139.779 20.3041L139.923 22.6081C139.995 23.5441 139.995 24.1561 140.175 24.5161C140.319 24.8401 140.787 25.0921 140.787 25.4881C140.787 25.9921 140.427 26.0281 139.743 26.0281H136.863C136.071 26.0281 135.783 25.9921 135.783 25.4881C135.783 24.9121 136.539 24.9841 136.539 23.7241V23.6521L136.467 21.7081C136.215 15.1201 135.279 11.6281 134.343 11.6281C133.767 11.6281 133.767 12.4921 133.767 14.1841V23.6521C133.767 25.0561 134.487 24.9121 134.487 25.4881C134.487 25.9921 134.199 26.0281 133.407 26.0281H130.599C129.843 26.0281 129.483 25.9561 129.483 25.4881C129.483 24.9841 130.275 25.0921 130.275 23.6521V14.0761ZM155.227 14.7601C155.047 14.9041 154.867 14.9761 154.723 14.9761C154.471 14.9761 154.255 14.7601 154.255 14.5081C154.255 14.1481 154.327 13.7881 154.327 13.4641C154.327 11.4121 153.931 10.4041 153.031 10.4041C152.059 10.4041 151.303 12.0961 151.303 15.3361C151.303 19.8361 152.563 22.5001 154.111 22.5001C154.795 22.5001 155.263 22.0681 155.479 21.2401C155.731 20.2321 155.659 19.8361 156.451 19.8361C157.135 19.8361 157.315 20.4121 157.315 21.7081C157.315 24.6961 155.803 26.3881 153.319 26.3881C150.583 26.3881 148.603 23.6521 148.603 18.8281C148.603 12.5281 151.051 8.71207 153.823 8.71207C155.839 8.71207 157.315 10.5841 157.315 12.4201C157.315 12.8161 157.135 13.1401 156.775 13.4281L155.227 14.7601ZM159.664 5.22008C159.664 4.14007 159.628 3.52808 159.448 3.31207C159.268 3.13207 158.836 2.98807 158.836 2.48407C158.836 2.08808 159.124 1.83607 159.664 1.51207L162.04 0.216076C162.292 0.0720756 162.544 7.43866e-05 162.724 7.43866e-05C162.976 7.43866e-05 163.156 0.252075 163.156 0.720076V23.6521C163.156 25.0921 163.912 24.9841 163.912 25.4881C163.912 25.9561 163.588 26.0281 162.832 26.0281H160.024C159.268 26.0281 158.908 25.9561 158.908 25.4881C158.908 24.9841 159.664 25.0921 159.664 23.6521V5.22008ZM168.995 9.03607C169.247 8.89208 169.499 8.82008 169.679 8.82008C169.931 8.82008 170.111 9.10808 170.111 9.57608V21.2761C170.111 22.7881 170.291 23.4361 171.155 23.4361C172.271 23.4361 172.739 22.2121 172.739 19.8001V14.0761C172.739 12.9961 172.703 12.3481 172.523 12.1321C172.343 11.9521 171.911 11.8081 171.911 11.3041C171.911 10.9081 172.199 10.6921 172.739 10.3681L174.971 9.03607C175.223 8.89208 175.475 8.82008 175.655 8.82008C175.907 8.82008 176.087 9.10808 176.087 9.57608V22.2841C176.087 23.1121 176.159 23.6161 176.519 23.9041C176.735 24.0841 177.131 24.1201 177.131 24.6241C177.131 24.9841 176.879 25.1641 176.411 25.3081L174.395 25.9201C173.927 26.0641 173.603 26.1721 173.351 26.1721C172.919 26.1721 172.739 25.7761 172.739 24.8761V23.7601C171.911 25.5241 170.867 26.3881 169.607 26.3881C167.195 26.3881 166.763 24.6241 166.763 20.9161V14.0761C166.763 12.9961 166.727 12.3481 166.547 12.1321C166.367 11.9521 165.935 11.8081 165.935 11.3041C165.935 10.9081 166.223 10.6921 166.763 10.3681L168.995 9.03607ZM179.557 5.22008C179.557 4.14007 179.521 3.52808 179.341 3.31207C179.161 3.13207 178.693 2.98807 178.693 2.48407C178.693 2.08808 179.017 1.83607 179.557 1.51207L181.897 0.216076C182.149 0.0720756 182.401 7.43866e-05 182.581 7.43866e-05C182.833 7.43866e-05 183.013 0.252075 183.013 0.720076V10.5121C183.553 9.28807 184.165 8.67608 184.993 8.67608C186.937 8.67608 188.881 12.5641 188.881 19.0081C188.881 23.8681 187.477 26.3881 185.137 26.3881C183.805 26.3881 182.797 25.4161 182.077 23.5081L181.105 25.4521C180.817 26.0281 180.565 26.3521 180.133 26.3521C179.593 26.3521 179.557 25.7041 179.557 24.4801V5.22008ZM184.453 11.0521C183.553 11.0521 183.085 12.8881 183.085 16.4881C183.085 20.5561 183.121 22.4281 184.345 22.4281C185.425 22.4281 185.821 20.5561 185.821 16.6681C185.821 12.9241 185.353 11.0521 184.453 11.0521Z" fill="white"/>
</svg>
