<svg width="199" height="64" viewBox="0 0 199 64" fill="none" xmlns="http://www.w3.org/2000/svg">
<path d="M2.448 25.256C2.448 23.816 2.4 23 2.16 22.712C1.92 22.472 1.344 22.28 1.344 21.608C1.344 21.08 1.728 20.744 2.448 20.312L5.616 18.584C5.952 18.392 6.288 18.296 6.528 18.296C6.864 18.296 7.104 18.632 7.104 19.256V49.832C7.104 51.752 8.112 51.608 8.112 52.28C8.112 52.904 7.68 53 6.672 53H2.928C1.92 53 1.44 52.904 1.44 52.28C1.44 51.608 2.448 51.752 2.448 49.832V25.256ZM14.4574 53.48C10.9054 53.48 7.97737 49.256 7.97737 42.344C7.97737 34.52 11.1454 29.864 13.8814 29.864C17.0974 29.864 20.2174 34.76 20.2174 42.152C20.2174 49.256 17.5294 53.48 14.4574 53.48ZM16.0414 48.632C16.7614 48.632 17.2894 48.056 17.2894 47C17.2894 45.752 16.7614 42.968 15.2734 39.272C13.9774 36.104 13.1614 34.424 12.0094 34.424C11.2414 34.424 10.9054 35.048 10.9054 36.2C10.9054 37.784 11.3374 40.52 12.6334 43.928C13.8334 47.048 14.9854 48.632 16.0414 48.632ZM20.9692 25.256C20.9692 23.816 20.9212 23 20.6812 22.712C20.4412 22.472 19.8652 22.28 19.8652 21.608C19.8652 21.08 20.2492 20.744 20.9692 20.312L24.1373 18.584C24.4733 18.392 24.8093 18.296 25.0493 18.296C25.3853 18.296 25.6252 18.632 25.6252 19.256V49.832C25.6252 51.752 26.6333 51.608 26.6333 52.28C26.6333 52.904 26.2013 53 25.1933 53H21.4492C20.4412 53 19.9612 52.904 19.9612 52.28C19.9612 51.608 20.9692 51.752 20.9692 49.832V25.256ZM35.2346 50.168C34.1786 52.472 33.0746 53.48 31.2026 53.48C28.7546 53.48 26.6906 51.08 26.6906 47.528C26.6906 43.208 29.1386 39.992 34.0346 37.832L33.9386 36.344C33.7946 33.752 32.9786 32.408 31.8266 32.408C31.2506 32.408 30.8186 32.6 30.3866 32.984C31.2506 33.512 31.6826 34.232 31.6826 35.192C31.6826 36.44 30.7706 37.4 29.4746 37.4C28.1306 37.4 27.1226 36.296 27.1226 34.52C27.1226 31.784 29.2346 29.912 32.5466 29.912C36.7706 29.912 38.3066 32.072 38.5466 36.824L39.1226 48.008C39.1706 49.208 39.5066 49.784 40.1786 49.784C40.3706 49.784 40.5626 49.784 40.8026 49.736C40.8506 49.976 40.8506 50.216 40.8506 50.456C40.8506 52.52 39.9866 53.528 38.1626 53.528C36.4826 53.528 35.5226 52.424 35.2346 50.168ZM34.4186 46.616L34.1786 40.328C34.1786 40.088 34.0346 39.896 33.8906 39.896C33.2666 39.896 31.0106 42.008 31.0106 45.8C31.0106 48.536 31.5866 49.88 32.7866 49.88C33.9386 49.88 34.4186 48.968 34.4186 47.144V46.616Z" fill="#2333F8"/>
<path d="M123.536 49.832C123.536 51.752 124.544 51.608 124.544 52.28C124.544 52.904 124.112 53 123.104 53H119.36C118.352 53 117.872 52.904 117.872 52.28C117.872 51.608 118.88 51.752 118.88 49.832V32.648H117.248C116.72 32.648 116.48 32.36 116.48 31.88V31.208C116.48 30.728 116.72 30.44 117.248 30.44H118.88C118.16 28.616 117.776 26.888 117.776 25.16C117.776 20.888 119.984 18.344 123.104 18.344C125.408 18.344 126.992 19.832 126.992 22.136C126.992 23.768 126.128 24.776 124.784 24.776C123.776 24.776 123.008 24.2 122.816 23.384C122.528 22.184 122.48 21.368 121.856 21.368C121.136 21.368 120.896 21.944 120.896 23.192C120.896 25.496 121.952 27.656 123.296 30.44H126.032C126.512 30.44 126.848 30.728 126.848 31.208V31.88C126.848 32.36 126.56 32.648 126.032 32.648H123.536V49.832ZM133.651 50.168C132.595 52.472 131.491 53.48 129.619 53.48C127.171 53.48 125.107 51.08 125.107 47.528C125.107 43.208 127.555 39.992 132.451 37.832L132.355 36.344C132.211 33.752 131.395 32.408 130.243 32.408C129.667 32.408 129.235 32.6 128.803 32.984C129.667 33.512 130.099 34.232 130.099 35.192C130.099 36.44 129.187 37.4 127.891 37.4C126.547 37.4 125.539 36.296 125.539 34.52C125.539 31.784 127.651 29.912 130.963 29.912C135.187 29.912 136.723 32.072 136.963 36.824L137.539 48.008C137.587 49.208 137.923 49.784 138.595 49.784C138.787 49.784 138.979 49.784 139.219 49.736C139.267 49.976 139.267 50.216 139.267 50.456C139.267 52.52 138.403 53.528 136.579 53.528C134.899 53.528 133.939 52.424 133.651 50.168ZM132.835 46.616L132.595 40.328C132.595 40.088 132.451 39.896 132.307 39.896C131.683 39.896 129.427 42.008 129.427 45.8C129.427 48.536 130.003 49.88 131.203 49.88C132.355 49.88 132.835 48.968 132.835 47.144V46.616ZM139.456 37.064C139.456 35.624 139.408 34.76 139.168 34.472C138.928 34.232 138.304 34.04 138.304 33.368C138.304 32.792 138.784 32.552 139.456 32.12L142.24 30.344C142.528 30.152 142.912 30.056 143.152 30.056C143.488 30.056 143.728 30.44 143.728 31.064V32.792C144.832 30.824 145.6 29.912 146.896 29.912C150.064 29.912 151.504 35 152.128 45.368L152.32 48.44C152.416 49.688 152.416 50.504 152.656 50.984C152.848 51.416 153.472 51.752 153.472 52.28C153.472 52.952 152.992 53 152.08 53H148.24C147.184 53 146.8 52.952 146.8 52.28C146.8 51.512 147.808 51.608 147.808 49.928V49.832L147.712 47.24C147.376 38.456 146.128 33.8 144.88 33.8C144.112 33.8 144.112 34.952 144.112 37.208V49.832C144.112 51.704 145.072 51.512 145.072 52.28C145.072 52.952 144.688 53 143.632 53H139.888C138.88 53 138.4 52.904 138.4 52.28C138.4 51.608 139.456 51.752 139.456 49.832V37.064ZM161.408 37.976C161.168 38.168 160.928 38.264 160.736 38.264C160.4 38.264 160.112 37.976 160.112 37.64C160.112 37.16 160.208 36.68 160.208 36.248C160.208 33.512 159.68 32.168 158.48 32.168C157.184 32.168 156.176 34.424 156.176 38.744C156.176 44.744 157.856 48.296 159.92 48.296C160.832 48.296 161.456 47.72 161.744 46.616C162.08 45.272 161.984 44.744 163.04 44.744C163.952 44.744 164.192 45.512 164.192 47.24C164.192 51.224 162.176 53.48 158.864 53.48C155.216 53.48 152.576 49.832 152.576 43.4C152.576 35 155.84 29.912 159.536 29.912C162.224 29.912 164.192 32.408 164.192 34.856C164.192 35.384 163.952 35.816 163.472 36.2L161.408 37.976ZM164.444 25.256C164.444 23.816 164.396 23 164.156 22.712C163.916 22.472 163.34 22.28 163.34 21.608C163.34 21.08 163.724 20.744 164.444 20.312L167.612 18.584C167.948 18.392 168.284 18.296 168.524 18.296C168.86 18.296 169.1 18.632 169.1 19.256V49.832C169.1 51.752 170.108 51.608 170.108 52.28C170.108 52.904 169.676 53 168.668 53H164.924C163.916 53 163.436 52.904 163.436 52.28C163.436 51.608 164.444 51.752 164.444 49.832V25.256ZM174.005 30.344C174.341 30.152 174.677 30.056 174.917 30.056C175.253 30.056 175.493 30.44 175.493 31.064V46.664C175.493 48.68 175.733 49.544 176.885 49.544C178.373 49.544 178.997 47.912 178.997 44.696V37.064C178.997 35.624 178.949 34.76 178.709 34.472C178.469 34.232 177.893 34.04 177.893 33.368C177.893 32.84 178.277 32.552 178.997 32.12L181.973 30.344C182.309 30.152 182.645 30.056 182.885 30.056C183.221 30.056 183.461 30.44 183.461 31.064V48.008C183.461 49.112 183.557 49.784 184.037 50.168C184.325 50.408 184.853 50.456 184.853 51.128C184.853 51.608 184.517 51.848 183.893 52.04L181.205 52.856C180.581 53.048 180.149 53.192 179.813 53.192C179.237 53.192 178.997 52.664 178.997 51.464V49.976C177.893 52.328 176.501 53.48 174.821 53.48C171.605 53.48 171.029 51.128 171.029 46.184V37.064C171.029 35.624 170.981 34.76 170.741 34.472C170.501 34.232 169.925 34.04 169.925 33.368C169.925 32.84 170.309 32.552 171.029 32.12L174.005 30.344ZM185.208 25.256C185.208 23.816 185.16 23 184.92 22.712C184.68 22.472 184.056 22.28 184.056 21.608C184.056 21.08 184.488 20.744 185.208 20.312L188.328 18.584C188.664 18.392 189 18.296 189.24 18.296C189.576 18.296 189.816 18.632 189.816 19.256V32.312C190.536 30.68 191.352 29.864 192.456 29.864C195.048 29.864 197.64 35.048 197.64 43.64C197.64 50.12 195.768 53.48 192.648 53.48C190.872 53.48 189.528 52.184 188.568 49.64L187.272 52.232C186.888 53 186.552 53.432 185.976 53.432C185.256 53.432 185.208 52.568 185.208 50.936V25.256ZM191.736 33.032C190.536 33.032 189.912 35.48 189.912 40.28C189.912 45.704 189.96 48.2 191.592 48.2C193.032 48.2 193.56 45.704 193.56 40.52C193.56 35.528 192.936 33.032 191.736 33.032Z" fill="#2333F8"/>
<path d="M53.208 46.68C52.344 51.288 51.144 53.208 48.216 53.208C46.296 53.208 45.816 52.584 45.576 51.096L45.144 48.552C45.096 48.36 45.096 48.168 45.096 47.976C45.096 47.256 45.384 46.824 45.912 46.824C46.92 46.824 47.112 48.792 48.504 48.792C49.8 48.792 50.568 47.304 50.568 44.424V44.136L46.44 26.904C45.768 24.024 44.76 23.592 44.76 23.16C44.76 22.488 45.24 22.392 46.152 22.392H49.992C51.048 22.392 51.432 22.44 51.432 23.112C51.432 23.784 50.424 24.024 50.424 25.128C50.424 25.272 50.424 25.416 50.472 25.56L52.344 35.448L53.976 26.424C54.024 26.232 54.072 25.8 54.072 25.272C54.072 23.784 53.16 23.688 53.16 23.16C53.16 22.488 53.688 22.392 54.6 22.392H56.904C57.96 22.392 58.296 22.44 58.296 23.112C58.296 23.832 57.432 23.688 57.096 25.56L53.208 46.68ZM63.2543 45.48C59.7023 45.48 56.7742 41.256 56.7742 34.344C56.7742 26.52 59.9423 21.864 62.6783 21.864C65.8943 21.864 69.0143 26.76 69.0143 34.152C69.0143 41.256 66.3263 45.48 63.2543 45.48ZM64.8383 40.632C65.5583 40.632 66.0863 40.056 66.0863 39C66.0863 37.752 65.5583 34.968 64.0703 31.272C62.7743 28.104 61.9583 26.424 60.8063 26.424C60.0383 26.424 59.7023 27.048 59.7023 28.2C59.7023 29.784 60.1342 32.52 61.4303 35.928C62.6302 39.048 63.7823 40.632 64.8383 40.632ZM72.5981 22.344C72.9341 22.152 73.2701 22.056 73.5101 22.056C73.8461 22.056 74.0861 22.44 74.0861 23.064V38.664C74.0861 40.68 74.3261 41.544 75.4781 41.544C76.9661 41.544 77.5901 39.912 77.5901 36.696V29.064C77.5901 27.624 77.5421 26.76 77.3021 26.472C77.0621 26.232 76.4861 26.04 76.4861 25.368C76.4861 24.84 76.8701 24.552 77.5901 24.12L80.5661 22.344C80.9021 22.152 81.2381 22.056 81.4781 22.056C81.8141 22.056 82.0541 22.44 82.0541 23.064V40.008C82.0541 41.112 82.1501 41.784 82.6301 42.168C82.9181 42.408 83.4461 42.456 83.4461 43.128C83.4461 43.608 83.1101 43.848 82.4861 44.04L79.7981 44.856C79.1741 45.048 78.7421 45.192 78.4061 45.192C77.8301 45.192 77.5901 44.664 77.5901 43.464V41.976C76.4861 44.328 75.0941 45.48 73.4141 45.48C70.1981 45.48 69.6221 43.128 69.6221 38.184V29.064C69.6221 27.624 69.5741 26.76 69.3341 26.472C69.0941 26.232 68.5181 26.04 68.5181 25.368C68.5181 24.84 68.9021 24.552 69.6221 24.12L72.5981 22.344ZM84.1853 29.064C84.1853 27.624 84.1373 26.76 83.8973 26.472C83.6573 26.232 83.0333 26.04 83.0333 25.368C83.0333 24.792 83.5133 24.552 84.1853 24.12L86.9693 22.344C87.2573 22.152 87.6413 22.056 87.8813 22.056C88.2173 22.056 88.4573 22.44 88.4573 23.064V24.792C89.5613 22.824 90.3293 21.912 91.6253 21.912C94.7933 21.912 96.2333 27 96.8573 37.368L97.0493 40.44C97.1453 41.688 97.1453 42.504 97.3853 42.984C97.5773 43.416 98.2013 43.752 98.2013 44.28C98.2013 44.952 97.7213 45 96.8093 45H92.9693C91.9133 45 91.5293 44.952 91.5293 44.28C91.5293 43.512 92.5373 43.608 92.5373 41.928V41.832L92.4413 39.24C92.1053 30.456 90.8573 25.8 89.6093 25.8C88.8413 25.8 88.8413 26.952 88.8413 29.208V41.832C88.8413 43.704 89.8013 43.512 89.8013 44.28C89.8013 44.952 89.4173 45 88.3613 45H84.6173C83.6093 45 83.1293 44.904 83.1293 44.28C83.1293 43.608 84.1853 43.752 84.1853 41.832V29.064ZM100.905 36.504C98.841 35.016 97.833 32.76 97.833 29.832C97.833 25.032 100.521 21.912 104.361 21.912H104.793C104.937 18.36 106.089 16.68 108.393 16.68C109.929 16.68 110.889 17.544 110.889 18.888C110.889 20.088 110.121 20.856 109.065 20.856C108.489 20.856 107.961 20.712 107.481 20.712C106.665 20.712 106.233 21.192 106.137 22.248C108.825 22.872 110.697 25.704 110.697 29.592C110.697 33.864 109.065 36.36 105.561 37.224C103.881 37.656 101.577 37.272 101.577 38.808C101.577 39.72 102.873 39.72 104.841 40.296C109.641 41.736 111.993 43.656 111.993 47.112C111.993 50.664 109.065 53.208 104.745 53.208C100.569 53.208 97.689 50.808 97.689 47.976C97.689 46.296 98.649 44.904 100.569 43.704C98.745 42.84 97.833 41.64 97.833 40.152C97.833 38.52 98.841 37.416 100.905 36.504ZM102.393 44.376C101.817 45.432 101.481 46.488 101.481 47.496C101.481 49.464 102.873 50.712 104.889 50.712C106.617 50.712 107.721 49.752 107.721 48.264C107.721 46.2 106.041 45.288 102.393 44.376ZM104.409 35.16C105.705 35.16 106.089 33.48 106.089 30.024C106.089 25.8 105.465 23.784 104.073 23.784C102.873 23.784 102.441 25.464 102.441 28.872C102.441 33.048 103.065 35.16 104.409 35.16Z" fill="#2333F8"/>
</svg>
